<svg width="13" height="12" viewBox="0 0 13 12" fill="none" xmlns="http://www.w3.org/2000/svg">
<path d="M4.69471 1.11199C5.17645 -0.37065 7.27399 -0.37065 7.75573 1.11199L8.12207 2.23947C8.33751 2.90252 8.9554 3.35145 9.65258 3.35145H10.8381C12.397 3.35145 13.0452 5.34633 11.784 6.26265L10.8249 6.95947C10.2609 7.36926 10.0249 8.09563 10.2403 8.75869L10.6066 9.88616C11.0884 11.3688 9.39142 12.6017 8.13021 11.6854L7.17113 10.9886C6.6071 10.5788 5.84334 10.5788 5.27931 10.9886L4.32023 11.6854C3.05902 12.6017 1.36207 11.3688 1.84381 9.88616L2.21015 8.75869C2.42559 8.09563 2.18958 7.36926 1.62554 6.95947L0.666458 6.26265C-0.594751 5.34633 0.0534247 3.35145 1.61237 3.35145H2.79786C3.49504 3.35145 4.11293 2.90252 4.32837 2.23947L4.69471 1.11199Z" fill="url(#paint0_linear_0_94)"/>
<defs>
<linearGradient id="paint0_linear_0_94" x1="-0.987929" y1="-2.10752" x2="12.2807" y2="9.72993" gradientUnits="userSpaceOnUse">
<stop stop-color="#FF006B"/>
<stop offset="1" stop-color="#FF4593"/>
</linearGradient>
</defs>
</svg>
