<svg width="17" height="16" viewBox="0 0 17 16" fill="none" xmlns="http://www.w3.org/2000/svg">
<path d="M5.96058 1.68864C6.69215 -0.562897 9.87748 -0.562898 10.6091 1.68864L10.8895 2.55164C11.2166 3.55856 12.155 4.2403 13.2137 4.2403H14.1211C16.4885 4.2403 17.4728 7.26972 15.5576 8.66125L14.8234 9.19461C13.9669 9.81692 13.6085 10.92 13.9357 11.9269L14.2161 12.7899C14.9476 15.0415 12.3707 16.9137 10.4554 15.5222L9.72127 14.9889C8.86474 14.3665 7.7049 14.3665 6.84836 14.9889L6.11425 15.5222C4.19898 16.9137 1.62199 15.0415 2.35356 12.7899L2.63396 11.9269C2.96113 10.92 2.60272 9.81693 1.74619 9.19461L1.01208 8.66125C-0.903197 7.26972 0.081123 4.2403 2.44853 4.2403H3.35594C4.41468 4.2403 5.35301 3.55856 5.68018 2.55164L5.96058 1.68864Z" fill="black"/>
</svg>
