<svg width="13" height="12" viewBox="0 0 13 12" fill="none" xmlns="http://www.w3.org/2000/svg">
<path d="M4.69469 1.11199C5.17643 -0.370649 7.27397 -0.370649 7.7557 1.11199L8.12204 2.23946C8.33748 2.90252 8.95537 3.35144 9.65255 3.35144H10.838C12.397 3.35144 13.0452 5.34631 11.7839 6.26263L10.8249 6.95945C10.2608 7.36924 10.0248 8.09561 10.2403 8.75867L10.6066 9.88614C11.0883 11.3688 9.39139 12.6017 8.13019 11.6854L7.1711 10.9885C6.60707 10.5787 5.84332 10.5787 5.27929 10.9885L4.32021 11.6854C3.059 12.6017 1.36206 11.3688 1.8438 9.88614L2.21013 8.75867C2.42557 8.09561 2.18956 7.36924 1.62553 6.95945L0.666449 6.26263C-0.594758 5.34631 0.0534169 3.35144 1.61235 3.35144H2.79785C3.49503 3.35144 4.11291 2.90251 4.32835 2.23946L4.69469 1.11199Z" fill="url(#paint0_linear_2_1308)"/>
<defs>
<linearGradient id="paint0_linear_2_1308" x1="0.809385" y1="-2.43789" x2="7.77257" y2="11.8753" gradientUnits="userSpaceOnUse">
<stop stop-color="#101010"/>
<stop offset="1" stop-color="#2F2F2F"/>
</linearGradient>
</defs>
</svg>
