<svg width="13" height="12" viewBox="0 0 13 12" fill="none" xmlns="http://www.w3.org/2000/svg">
<path d="M4.69471 1.11198C5.17644 -0.370661 7.27398 -0.370661 7.75572 1.11198L8.12206 2.23945C8.3375 2.90251 8.95539 3.35143 9.65257 3.35143H10.8381C12.397 3.35143 13.0452 5.34631 11.784 6.26263L10.8249 6.95945C10.2609 7.36924 10.0248 8.09561 10.2403 8.75867L10.6066 9.88614C11.0884 11.3688 9.39141 12.6017 8.13021 11.6854L7.17112 10.9885C6.60709 10.5788 5.84334 10.5788 5.27931 10.9885L4.32022 11.6854C3.05901 12.6017 1.36207 11.3688 1.84381 9.88614L2.21015 8.75867C2.42559 8.09561 2.18957 7.36924 1.62554 6.95945L0.666458 6.26263C-0.594751 5.34631 0.0534246 3.35143 1.61236 3.35143H2.79786C3.49504 3.35143 4.11293 2.90251 4.32837 2.23945L4.69471 1.11198Z" fill="url(#paint0_linear_0_41)"/>
<defs>
<linearGradient id="paint0_linear_0_41" x1="-0.987928" y1="-2.10753" x2="12.2807" y2="9.72991" gradientUnits="userSpaceOnUse">
<stop stop-color="#FF006B"/>
<stop offset="1" stop-color="#FF4593"/>
</linearGradient>
</defs>
</svg>
